<?xml version="1.0" encoding="UTF-8" standalone="no"?>
<!-- Created with Inkscape (http://www.inkscape.org/) -->

<svg
   width="170.39517mm"
   height="170.39517mm"
   viewBox="0 0 170.39517 170.39517"
   version="1.1"
   id="svg5"
   xml:space="preserve"
   inkscape:version="1.2.2 (732a01da63, 2022-12-09)"
   sodipodi:docname="Logo-svetle-circle.svg"
   inkscape:export-filename="favicon.png"
   inkscape:export-xdpi="96"
   inkscape:export-ydpi="96"
   xmlns:inkscape="http://www.inkscape.org/namespaces/inkscape"
   xmlns:sodipodi="http://sodipodi.sourceforge.net/DTD/sodipodi-0.dtd"
   xmlns="http://www.w3.org/2000/svg"
   xmlns:svg="http://www.w3.org/2000/svg"><sodipodi:namedview
     id="namedview7"
     pagecolor="#ffffff"
     bordercolor="#000000"
     borderopacity="0.25"
     inkscape:showpageshadow="2"
     inkscape:pageopacity="0.0"
     inkscape:pagecheckerboard="0"
     inkscape:deskcolor="#d1d1d1"
     inkscape:document-units="mm"
     showgrid="false"
     inkscape:zoom="1.0582793"
     inkscape:cx="206.46723"
     inkscape:cy="315.1342"
     inkscape:window-width="1920"
     inkscape:window-height="1001"
     inkscape:window-x="-9"
     inkscape:window-y="-9"
     inkscape:window-maximized="1"
     inkscape:current-layer="layer1" /><defs
     id="defs2" /><g
     inkscape:label="Layer 1"
     inkscape:groupmode="layer"
     id="layer1"
     transform="translate(-26.658215,-90.376455)"><circle
       style="fill:#f4ece9;fill-opacity:1;stroke:#c0a99d;stroke-width:2.87972"
       id="path341"
       cx="111.8558"
       cy="175.57404"
       r="83.757637" /><path
       id="path302"
       style="fill:#c0a99d;fill-opacity:1;stroke-width:0.6;stroke-dasharray:none"
       d="m 139.08012,107.70783 c -2.8654,0.0442 -5.83421,0.56116 -8.38515,1.98249 -4.58304,2.27852 -7.83986,6.68593 -9.33518,11.51479 -0.72344,2.00164 -0.81279,4.1422 -0.7655,6.24798 -0.06,2.60769 0.008,5.29056 1.02978,7.73303 1.86987,5.2336 5.64928,9.91825 10.73534,12.29905 -1.43189,0.46764 -2.87616,1.80201 -2.54101,3.44141 0.34749,1.72384 2.17001,2.55178 3.74832,2.78622 0.51146,0.0673 1.1175,-0.0219 0.87193,0.70245 -0.0274,2.05306 0.0839,4.20683 -0.10658,6.18711 -2.13501,0.78144 -3.87734,2.41513 -4.93861,4.41048 -0.72704,1.29363 -1.78875,2.35276 -3.04622,3.13159 -2.44515,1.73741 -5.05587,3.53064 -7.97806,4.48527 -1.05994,0.007 -2.10081,-0.28542 -3.16598,-0.29865 -2.66386,-0.23202 -5.25111,-0.48022 -7.84379,-1.06072 -0.0794,-0.62034 0.80239,-0.33976 1.17456,-0.53135 3.16893,-0.57167 6.51249,-1.99878 8.11841,-4.96084 1.08658,-2.00744 1.06692,-4.38376 0.74414,-6.57812 0.32524,-0.72935 1.01081,-1.35985 1.03711,-2.16797 0.24254,-1.69174 -1.26138,-2.9775 -2.67316,-3.56957 -0.6029,-0.23241 -1.09799,-0.75817 -1.01852,-1.43796 -0.15794,-1.82977 -0.40251,-3.68054 -0.91183,-5.43583 1.60341,-1.75594 1.80094,-4.6265 0.57422,-6.64649 -0.91712,-1.35548 -2.65712,-1.55647 -4.12696,-1.83984 -1.49567,-0.67229 -2.72214,-1.85942 -4.32638,-2.31542 -1.42144,-0.54685 -3.0154,-0.42417 -4.38873,0.20176 -1.14955,0.47677 -2.376685,0.74183 -3.623153,0.64148 -2.182928,-0.0321 -4.448086,-0.0817 -6.483273,0.83462 -3.066275,1.01955 -5.839617,2.99524 -7.580706,5.7435 -0.779797,1.1449 -1.234978,2.48819 -1.553168,3.80779 -0.731427,0.62107 -1.539156,1.20388 -1.929584,2.12023 -1.217545,2.33337 -1.148486,5.13557 -0.562149,7.6369 0.482769,1.77913 1.651885,3.26234 2.872926,4.58891 0.212692,0.90822 0.0229,1.88255 0.40625,2.76562 0.838943,2.57212 3.448175,4.02545 5.943201,4.5984 1.303001,0.34933 2.734269,0.37493 3.937659,1.00512 0.329354,0.35577 0.545985,0.95859 -0.181641,0.90039 -2.94964,0.98661 -5.489455,2.86786 -7.999339,4.6519 -1.641721,1.24951 -3.344341,2.51692 -4.570973,4.1938 -0.422287,0.60945 -0.207659,1.45654 -0.824219,1.93945 -2.12083,2.34578 -4.509106,4.46427 -6.337616,7.06365 -2.068923,2.85777 -3.902203,5.87913 -5.681915,8.92268 -0.959231,1.62354 -1.210604,3.70347 -0.322258,5.41356 0.911005,1.91697 3.032544,3.44136 5.219711,3.00133 1.845691,-0.28474 3.512509,-1.26107 4.999533,-2.34463 1.085049,-0.79803 1.575227,-2.12594 1.614286,-3.43545 2e-4,-0.86262 0.294291,-1.69381 0.957981,-2.26529 2.189357,-2.57048 4.75312,-4.78369 7.315903,-6.96913 0.514906,0.29875 1.132618,0.49508 1.726562,0.3457 -0.453444,2.50532 -1.305111,5.04018 -1.193253,7.63977 0.0204,0.75176 0.787847,1.23294 0.65924,1.98734 0.02228,1.71136 -0.04938,3.47726 -0.827113,5.0385 -0.899174,2.24345 -2.16371,4.32072 -3.112284,6.53719 -0.339451,0.8645 -0.312752,1.96934 0.377707,2.65658 -3.240315,2.96105 -5.97391,6.42472 -9.058586,9.53875 -1.619063,1.57986 -3.638754,2.75633 -5.013563,4.57845 -0.843037,1.23152 -1.411968,2.87283 -0.697382,4.29491 1.008094,2.30073 3.047391,3.89921 4.625534,5.78828 1.62003,1.85617 3.502283,3.85423 6.088753,4.15709 1.664374,0.22692 3.452108,0.0352 4.941963,-0.76568 1.941689,-1.29283 2.031639,-4.3526 0.403652,-5.93717 -0.675935,-0.87707 -1.774822,-1.54063 -1.794277,-2.77572 0.476546,-1.66556 2.048624,-2.66197 3.254391,-3.77722 3.118667,-2.55771 6.448147,-4.86955 9.349125,-7.68372 1.018971,0.24155 2.263837,0.19704 2.938505,-0.72715 0.73328,-0.72172 1.44337,-1.4698 2.08493,-2.2748 1.15207,1.13516 2.79889,2.35273 4.4975,1.72342 0.69935,-0.21698 1.35269,-0.55369 2.01617,-0.85819 1.29217,0.93956 2.84206,1.62542 3.85683,2.88367 1.48326,2.46157 2.48115,5.24225 4.46377,7.38039 2.18484,2.63374 4.56412,5.12132 6.44106,7.99526 1.18374,1.62866 2.93263,3.29807 5.10898,3.0714 2.58864,-0.31705 4.5925,-2.18192 6.54336,-3.74399 2.12704,-1.83261 4.31046,-3.73356 5.73139,-6.18926 0.98836,-1.923 0.43006,-4.61897 -1.55384,-5.67474 -1.70899,-1.04287 -3.84338,-0.5512 -5.52602,0.28481 -1.1537,0.50608 -2.26521,1.11192 -3.45224,1.53933 -1.23644,-1.15514 -1.82839,-2.8066 -2.65235,-4.25 -1.59781,-3.19189 -2.7883,-6.65464 -4.74786,-9.68214 -0.92637,-1.38127 -2.22126,-2.501 -3.14472,-3.86278 0.0697,-0.83468 0.13352,-1.76941 -0.51301,-2.41723 -1.57182,-2.18351 -3.50343,-4.03409 -5.21103,-6.08324 -0.17983,-0.35889 -1.01616,-0.73169 -0.41267,-1.06984 1.11118,-1.44998 1.05506,-3.39671 1.23602,-5.12955 0.15909,-2.54978 -0.14568,-5.18981 -0.37274,-7.66342 1.71132,-0.004 3.74808,0.19942 5.07226,-1.11133 0.36823,-0.34382 0.45041,-0.97447 0.81972,-1.24645 4.41684,-0.67326 8.28658,-3.3045 11.40023,-6.39846 1.29762,-1.27902 2.39593,-2.73798 3.45388,-4.21446 0.58129,4.28006 1.78496,8.50805 3.82017,12.32976 0.7244,1.16016 1.44486,2.47002 2.67788,3.15266 1.02704,0.58555 2.48112,0.0902 2.80705,-1.07791 0.41166,-1.41013 -0.93756,-2.41569 -1.53688,-3.52233 -1.98711,-3.29199 -2.96618,-7.07993 -3.55457,-10.80752 -0.11705,-0.84199 -0.20265,-1.65731 -0.29959,-2.51607 2.15752,-1.3472 3.63193,-3.86303 3.34571,-6.44531 -0.1035,-1.9956 -1.07622,-4.0818 -2.96289,-4.95508 -0.31517,-0.24767 -1.03015,-0.16169 -0.82032,-0.74766 0,-1.93046 0,-3.86093 0,-5.7914 1.33968,0.0754 2.95509,0.12468 3.85784,-1.06691 1.10115,-1.30612 0.74318,-3.36814 -0.51165,-4.44102 -0.28237,-0.3071 -0.89959,-0.60865 -0.0997,-0.64342 5.01969,-1.50995 9.2133,-5.15094 12.02832,-9.50427 2.18356,-3.45835 3.4003,-7.51693 3.4267,-11.61037 0.0543,-2.38905 0.067,-4.83921 -0.78147,-7.10997 -1.51492,-4.7661 -5.01732,-8.98533 -9.71304,-10.86428 -2.39196,-0.99965 -4.99946,-1.48624 -7.59179,-1.3789 z m 0.11133,4.03125 c 4.15759,-0.0624 8.4081,1.88522 10.9414,5.11914 2.86911,3.6409 3.66244,8.58954 2.69789,13.05886 -0.36578,1.75031 -1.0376,3.67511 -1.94146,5.32543 -2.12641,3.91343 -5.56609,7.27216 -9.81876,8.75434 -2.06958,0.75061 -4.40975,0.8366 -6.44023,-0.0914 -3.20374,-1.35386 -5.8648,-3.82901 -7.56424,-6.80446 -1.8641,-3.18414 -2.74856,-6.968 -2.47812,-10.59437 0.3483,-4.61289 2.38031,-9.30753 6.26475,-12.00763 2.43702,-1.74051 5.42959,-2.69001 8.33877,-2.75995 z m -34.76563,27.8164 c 2.1448,0.75815 3.76332,2.86016 6.18555,2.83594 0.53885,-0.14507 0.67383,0.44173 0.46637,0.82665 -0.46611,1.39522 -2.25027,1.88995 -3.51241,1.29407 -1.40133,-0.50468 -2.97555,-1.51296 -4.46555,-0.7173 -1.24652,0.64882 -1.76627,2.11776 -1.6952,3.45465 -0.0813,1.76189 -0.39814,3.63251 -1.570461,5.00095 -0.448159,0.64963 -1.110581,1.56177 -2.017674,1.14489 -2.785826,-0.61708 -5.550149,1.85457 -5.67598,4.61358 -0.159229,2.0389 0.460185,4.2076 2.034078,5.58726 0.315557,0.37337 0.778612,0.66078 1.093074,0.98666 -0.02111,0.50644 -0.11287,1.01643 -0.322266,1.48047 -2.332779,-1.28209 -5.350037,-0.81844 -7.445313,-2.59375 -1.064402,-1.06665 -0.377918,-2.76926 -1.132996,-3.99254 -1.057651,-1.52833 -2.65408,-2.88992 -2.808411,-4.8688 -0.0024,-1.40673 -0.304599,-3.214 1.03408,-4.14464 0.83638,-0.52233 1.764454,-1.20531 1.764235,-2.30002 0.318414,-2.10695 1.506677,-4.04953 3.29062,-5.22971 1.950779,-1.46896 4.388308,-2.21172 6.821724,-2.18872 2.216725,-0.12295 4.56169,0.0377 6.58801,-1.03827 0.42667,-0.18606 0.91561,-0.34728 1.36852,-0.15137 z m 1.1543,8.61524 c 1.42902,0.62622 3.04538,0.83664 4.58203,0.54687 0.51896,2.15019 0.16788,4.58419 1.43279,6.5064 0.57333,0.78099 1.41857,1.2978 2.24104,1.78071 -0.66074,0.7783 -0.94946,1.86276 -0.54883,2.83203 0.44876,1.94682 0.13426,4.37166 -1.70741,5.50447 -1.86925,1.289 -4.27488,1.19589 -6.29594,2.10283 -1.2764,0.64985 -1.88791,2.08872 -1.90095,3.46692 -0.0485,0.56517 -0.0808,1.13076 -0.10937,1.69727 -2.01665,0.0578 -3.800009,-1.05408 -5.687504,-1.56836 -0.01064,-0.55563 -0.334796,-1.22921 0.186945,-1.67568 1.013174,-1.28414 1.311455,-2.95039 1.590399,-4.52159 0.68805,-0.56317 1.29579,-1.46266 0.90811,-2.37425 -0.397932,-1.24198 -1.820612,-1.66322 -2.98338,-1.72343 -1.085124,-0.53737 -1.473358,-2.22096 -0.692309,-3.14841 0.951941,-0.48946 1.990762,0.37113 2.980469,-0.0234 1.59429,-0.47157 2.74631,-1.81258 3.73118,-3.08144 1.318,-1.85621 2.03124,-4.11297 2.13796,-6.37949 l 0.0917,0.0399 z m 29.09765,1.63672 c 0.54247,0.22347 0.18544,1.13777 0,0 z m 2.38086,14.64453 c 1.44558,0.47045 1.48165,2.581 0.49024,3.5293 -1.49484,1.41265 -3.71324,1.8151 -5.05366,3.43463 -1.217,1.31543 -2.10684,2.93018 -3.39608,4.12894 -2.36558,2.3984 -5.22868,4.3823 -8.44479,5.43838 -0.0994,-1.51221 -0.20051,-3.02667 -0.41407,-4.52735 4.05791,-1.77273 7.86766,-4.17596 11.10941,-7.19755 1.30255,-1.33407 1.81241,-3.37997 3.48044,-4.34932 0.67701,-0.35281 1.46494,-0.55663 2.22851,-0.45703 z m -42.042967,10.25 c 3.087706,0.75911 6.087457,2.36685 9.346407,2.07765 0.98196,-0.14363 1.88405,-0.64055 2.62039,-1.29249 2.99041,0.59927 6.05037,0.83418 9.07227,1.10351 0.343,2.17813 0.55943,4.49191 0.16797,6.72852 -0.20018,0.32971 -1.02963,0.0921 -1.46868,0.22334 -0.47646,-0.0927 -1.31173,0.34236 -1.55286,-0.0982 -0.42916,-1.31419 -0.72326,-2.96564 -2.05854,-3.66612 -1.14743,-0.51568 -2.77724,0.38027 -2.5646,1.73252 0.21491,2.45413 1.24189,4.74495 1.54702,7.1874 0.46583,2.96603 0.48029,6.00905 0.0723,8.97852 -0.62428,0.55229 -1.56252,0.52763 -2.33377,0.75949 -2.47951,0.42822 -4.92372,0.36939 -7.47747,0.37425 -2.920491,-0.0353 -5.804865,-0.59404 -8.626256,-1.30562 0.729439,-2.91485 1.233168,-5.89711 1.705078,-8.85742 0.880258,-0.46233 1.920248,-1.02689 2.107731,-2.11322 0.33371,-1.13477 -0.583931,-2.47521 -1.821009,-2.3332 -1.644077,0.0852 -2.965668,1.24419 -4.329691,2.04017 -0.554949,0.66345 -0.950203,0.29711 -1.305995,-0.32371 -1.283605,-1.61886 -2.60975,-3.2094 -3.754551,-4.93215 2.756851,-2.51793 5.757332,-4.66008 9.199218,-6.15234 0.462864,-0.20519 0.964304,-0.33507 1.455078,-0.13086 z m -11.912109,11.54687 c 0.404948,0.50782 0.809896,1.01563 1.214844,1.52344 -3.090538,2.81079 -6.345106,5.52209 -8.824219,8.91406 -0.641293,1.09098 -0.592915,2.39666 -0.867188,3.59571 -0.836303,0.59553 -1.963538,1.18305 -3.05664,1.54297 -1.043049,-0.37399 -1.269963,-1.77098 -0.589339,-2.58111 1.49811,-2.64714 3.221816,-5.16307 4.945592,-7.66733 1.771368,-2.45236 3.7203,-4.80081 6.024606,-6.77305 0.384115,0.48177 0.768229,0.96354 1.152344,1.44531 z m 9.544922,15.78321 c 5.044382,0.92882 10.249464,1.32055 15.345424,0.59261 0.48395,-0.0351 1.06409,-0.42428 1.3353,0.16935 1.96859,2.16088 3.94553,4.31595 5.81928,6.5603 -2.33246,2.75981 -5.12492,5.13497 -8.17198,7.07019 -0.5107,0.26 -1.15385,0.89782 -1.66614,0.33388 -1.99787,-1.48445 -4.01475,-2.94099 -6.084768,-4.32448 -2.55357,-1.80457 -5.27408,-3.83478 -6.403288,-6.8706 -0.400593,-1.13974 -0.566931,-2.37795 -0.373047,-3.57617 0.06641,0.015 0.132813,0.0299 0.199219,0.0449 z m -2.103516,8.05859 c 2.133114,2.86172 5.194194,4.91933 8.009766,6.95508 -0.464169,0.35479 -0.69142,1.13039 -1.26206,1.25535 -3.171228,-0.94934 -6.10403,-2.5604 -8.500181,-4.8715 -0.556103,-0.35238 0.23608,-0.94265 0.324349,-1.4078 0.384896,-0.76936 0.769792,-1.53872 1.154689,-2.30808 0.09115,0.12565 0.182291,0.2513 0.273437,0.37695 z m 27.12891,4.21484 c 1.98418,1.94403 3.06919,4.53689 4.16805,7.03378 1.46394,3.21955 2.81872,6.57778 5.09953,9.32365 1.06343,1.18378 2.83483,1.8422 4.34773,1.13923 1.92757,-0.65623 3.64961,-2.00276 5.68742,-2.25447 -0.46128,1.55288 -1.90222,2.51906 -2.97685,3.64081 -1.72198,1.52547 -3.4299,3.16361 -5.52569,4.15764 -0.59651,0.25936 -1.19543,-0.0756 -1.45614,-0.62484 -1.88862,-2.57148 -3.78995,-5.13838 -5.95661,-7.484 -1.68758,-1.925 -3.25226,-4.0566 -4.22729,-6.48648 -0.76964,-1.7087 -1.97671,-3.27548 -3.5855,-4.22351 -0.18865,-0.29153 -1.23025,-0.55211 -0.81684,-0.85657 1.58995,-1.29526 3.08116,-2.70565 4.55273,-4.13281 0.22982,0.25586 0.45964,0.51172 0.68946,0.76757 z m -29.070316,4.3418 c 1.23395,0.81166 2.503616,1.57479 3.832031,2.22266 -3.502078,3.20659 -7.729914,5.61761 -10.845703,9.24804 -1.680177,2.05249 -1.992356,5.28202 -0.259095,7.3989 0.463316,0.63216 1.018082,1.18763 1.53058,1.77884 -1.568483,0.24785 -3.141238,-0.50583 -4.14442,-1.69964 -1.489231,-1.68871 -3.112915,-3.27906 -4.456176,-5.09574 -0.37908,-0.35008 -0.40755,-0.86771 0.0088,-1.20657 2.021642,-1.90738 4.411684,-3.42603 6.193016,-5.58963 2.278021,-2.67544 4.596502,-5.32844 7.172218,-7.72483 0.322917,0.22266 0.645833,0.44532 0.968749,0.66797 z" /></g></svg>
