<?xml version="1.0" encoding="UTF-8" standalone="no"?>
<!-- Created with Inkscape (http://www.inkscape.org/) -->

<svg
   width="170.39517mm"
   height="170.39517mm"
   viewBox="0 0 170.39517 170.39517"
   version="1.1"
   id="svg5"
   xml:space="preserve"
   inkscape:version="1.2.2 (732a01da63, 2022-12-09)"
   sodipodi:docname="logo8.svg"
   xmlns:inkscape="http://www.inkscape.org/namespaces/inkscape"
   xmlns:sodipodi="http://sodipodi.sourceforge.net/DTD/sodipodi-0.dtd"
   xmlns="http://www.w3.org/2000/svg"
   xmlns:svg="http://www.w3.org/2000/svg"><sodipodi:namedview
     id="namedview7"
     pagecolor="#ffffff"
     bordercolor="#000000"
     borderopacity="0.25"
     inkscape:showpageshadow="2"
     inkscape:pageopacity="0.0"
     inkscape:pagecheckerboard="0"
     inkscape:deskcolor="#d1d1d1"
     inkscape:document-units="mm"
     showgrid="false"
     inkscape:zoom="0.52913967"
     inkscape:cx="677.51488"
     inkscape:cy="849.49216"
     inkscape:window-width="1920"
     inkscape:window-height="1001"
     inkscape:window-x="-9"
     inkscape:window-y="-9"
     inkscape:window-maximized="1"
     inkscape:current-layer="layer1" /><defs
     id="defs2" /><g
     inkscape:label="Layer 1"
     inkscape:groupmode="layer"
     id="layer1"
     transform="translate(-26.658215,-90.376455)"><rect
       style="fill:#c0a99d;fill-opacity:1;stroke-width:0.129557"
       id="rect961"
       width="170.39517"
       height="170.39517"
       x="26.658215"
       y="90.37645" /><path
       style="fill:#744d3b;fill-opacity:1;stroke-width:0.211667"
       d="m 80.712519,242.28497 c -1.734303,-0.35549 -2.724054,-1.02026 -4.636933,-3.1144 -1.015731,-1.11197 -2.44777,-2.67622 -3.182308,-3.47609 -1.380577,-1.50338 -2.144262,-2.84599 -2.152329,-3.78392 -0.0026,-0.29729 0.246257,-1.04403 0.55292,-1.65942 0.456112,-0.9153 1.010311,-1.47858 3.045651,-3.09561 1.767715,-1.4044 3.193129,-2.79309 4.92325,-4.79641 1.339344,-1.55084 3.437655,-3.81038 4.662917,-5.02122 l 2.227745,-2.20151 -0.388203,-0.55015 c -0.735245,-1.04198 -0.698652,-1.33558 0.435934,-3.49764 0.594015,-1.13195 1.533891,-3.0767 2.088617,-4.32168 0.961189,-2.15721 1.013864,-2.37488 1.120828,-4.63159 0.101035,-2.13161 0.07256,-2.40391 -0.2852,-2.72768 -0.571229,-0.51696 -0.512983,-1.87107 0.223971,-5.207 0.341778,-1.5471 0.686636,-3.2698 0.766352,-3.82822 l 0.144941,-1.01532 -0.852452,0.44432 c -0.802454,0.41826 -0.898787,0.42496 -1.642446,0.11424 -0.930838,-0.38893 -0.549898,-0.62398 -4.087834,2.52235 -2.896896,2.57624 -5.474445,5.37022 -5.624915,6.09722 -0.05379,0.25988 -0.155092,1.00266 -0.225122,1.65063 -0.186919,1.72949 -0.623572,2.2749 -2.771949,3.46236 -1.532339,0.84696 -2.123355,1.05829 -3.155486,1.12832 -1.139715,0.0773 -1.369488,0.0196 -2.239789,-0.56225 -1.880568,-1.25737 -2.575158,-3.53234 -1.701081,-5.57148 0.586014,-1.36712 4.484796,-7.58013 6.213006,-9.90091 0.823571,-1.10596 2.694789,-3.19991 4.158263,-4.65322 2.014385,-2.0004 2.646064,-2.75529 2.599963,-3.1071 -0.107205,-0.81808 0.513307,-1.61845 2.598886,-3.35218 3.722446,-3.09444 8.157712,-5.78834 10.119504,-6.1464 0.7181,-0.13107 0.79367,-0.2082 0.79296,-0.80924 -4.3e-4,-0.36539 -0.18638,-0.96873 -0.41321,-1.34074 -0.4501,-0.73819 -0.83434,-0.88481 -3.782167,-1.44325 -4.244238,-0.80404 -6.379625,-2.7473 -6.3851,-5.8106 -0.0019,-1.08211 -0.06276,-1.21893 -0.940876,-2.11666 -1.776067,-1.81573 -2.533821,-3.9873 -2.416528,-6.92529 0.09268,-2.32153 0.821125,-4.01799 2.084186,-4.85385 0.666045,-0.44077 0.827663,-0.69095 0.942937,-1.45965 0.348105,-2.32132 2.631315,-5.29577 5.317742,-6.92769 0.702672,-0.42685 2.177297,-1.08162 3.276946,-1.45504 1.89093,-0.64213 2.16006,-0.67798 4.962695,-0.6611 2.80197,0.0169 3.047765,-0.0159 4.513905,-0.60091 0.85282,-0.34031 1.92081,-0.61874 2.37332,-0.61874 1.15662,0 2.85583,0.6858 4.40898,1.77947 1.05926,0.74589 1.57368,0.96263 2.55514,1.07654 2.28094,0.26473 3.18782,1.28987 3.18782,3.60353 0,1.21075 -0.35412,2.17445 -1.09862,2.9898 -0.41077,0.44985 -0.41079,0.46433 -10e-4,1.79916 0.2269,0.74012 0.48163,2.28396 0.56605,3.43077 0.17293,2.34901 0.28317,2.54 1.95564,3.38812 1.94445,0.98604 2.35135,2.13201 1.26344,3.55833 -0.55154,0.72311 -0.56669,0.81008 -0.37585,2.15764 0.74531,5.2629 -2.32697,8.5939 -8.82062,9.56339 -0.56022,0.0836 -0.98155,0.28272 -1.11125,0.52507 -0.26571,0.49649 -0.27123,1.62468 -0.009,1.78691 0.47307,0.29237 5.016,0.98302 7.84316,1.19237 1.68804,0.12501 3.2548,0.29792 3.48168,0.38425 0.8417,0.32031 4.40223,-1.3901 7.83582,-3.76417 3.12526,-2.16089 3.58113,-2.5894 4.58707,-4.31181 0.47409,-0.81176 1.24105,-1.855 1.70435,-2.3183 0.78216,-0.78215 2.68382,-1.85758 3.29316,-1.86234 0.203,-10e-4 0.26459,-1.01212 0.26459,-4.34123 v -4.33917 h -0.80825 c -1.27546,0 -2.92737,-0.5795 -3.41346,-1.19746 -1.16493,-1.48097 -0.035,-2.89341 2.78597,-3.48254 0.61503,-0.12845 1.19823,-0.30812 1.29599,-0.39928 0.0978,-0.0912 -0.33085,-0.32951 -0.9525,-0.52968 -5.59926,-1.80292 -10.49787,-7.33322 -12.28084,-13.86437 -0.43189,-1.58203 -0.48975,-2.25898 -0.47946,-5.60917 0.0108,-3.51556 0.0561,-3.95721 0.58588,-5.715 1.64224,-5.44849 4.80144,-9.35707 9.31384,-11.52311 2.4292,-1.16607 3.87455,-1.50861 6.93162,-1.64276 2.04155,-0.0896 3.07676,-0.0328 4.445,0.24403 6.38751,1.29215 10.82849,5.51904 12.7338,12.11994 0.40909,1.41727 0.47366,2.12373 0.46024,5.03524 -0.0173,3.74774 -0.41731,5.79661 -1.76285,9.02875 -2.45642,5.90057 -8.46313,11.1204 -14.04228,12.20273 -1.01643,0.19718 -1.84592,0.40614 -1.8433,0.46435 0.003,0.0582 0.39564,0.28625 0.87337,0.50677 2.51237,1.15968 3.34468,3.14488 1.87297,4.46739 -0.38956,0.35007 -0.7601,0.42157 -2.14096,0.41315 l -1.66986,-0.0102 v 3.94275 3.94275 l 1.05314,0.49327 c 0.57923,0.2713 1.24007,0.69239 1.46853,0.93577 0.78653,0.83786 1.27877,2.26998 1.28368,3.73468 0.007,2.11858 -0.95287,3.77815 -2.93637,5.07632 l -0.49684,0.32518 0.26012,2.32066 c 0.59067,5.26964 2.57729,10.87154 4.78652,13.49705 0.55844,0.66366 0.64378,1.1972 0.25388,1.5871 -1.85716,1.85716 -6.01826,-6.57349 -6.963,-14.10746 -0.14088,-1.12349 -0.33555,-2.13193 -0.4326,-2.24098 -0.25604,-0.28771 -1.09393,0.57153 -2.46382,2.52661 -2.10131,2.99894 -5.48725,5.90238 -8.83074,7.57235 -1.30995,0.65428 -3.76377,1.42348 -4.54103,1.42348 -0.48132,0 -0.63775,0.14553 -0.9149,0.85108 -0.46012,1.17134 -1.26323,1.47726 -3.87814,1.47726 h -2.04516 l 0.1317,1.00541 c 0.44265,3.37941 0.569,6.33694 0.36435,8.52882 -0.23825,2.55162 -0.60138,3.58851 -1.40792,4.02015 -0.28844,0.15438 -0.49844,0.35341 -0.46667,0.4423 0.0318,0.0889 1.39127,1.65771 3.0211,3.48627 3.99758,4.48502 3.97011,4.44537 3.81483,5.50477 -0.12366,0.84373 -0.0838,0.91632 1.39355,2.54 2.11219,2.32134 2.7186,3.30413 4.42961,7.17895 3.02363,6.84745 4.67194,9.62666 5.7094,9.62666 0.2139,0 1.46787,-0.52614 2.7866,-1.16919 2.91746,-1.42266 4.14141,-1.64034 5.50679,-0.97937 1.76163,0.85279 2.24442,2.90201 1.13122,4.80154 -1.29607,2.21157 -6.65928,7.03204 -9.30122,8.35995 -2.69267,1.35341 -4.39161,0.54413 -6.95109,-3.31112 -0.54979,-0.82813 -1.73913,-2.34246 -2.64299,-3.36518 -3.99323,-4.51837 -4.5136,-5.22985 -5.88248,-8.04271 -0.73702,-1.51448 -1.57968,-2.97873 -1.87258,-3.25389 -0.2929,-0.27517 -1.36653,-1.04703 -2.38585,-1.71524 l -1.8533,-1.21494 -1.28041,0.60574 c -0.70423,0.33316 -1.49946,0.60582 -1.76718,0.60591 -0.71746,2.1e-4 -1.72198,-0.56667 -2.75958,-1.55743 l -0.91801,-0.87657 -0.55772,0.74083 c -0.30675,0.40746 -1.05293,1.24787 -1.658175,1.86757 -1.08802,1.114 -1.11137,1.12509 -2.0668,0.98181 l -0.966355,-0.14491 -1.6011,1.49525 c -0.8806,0.82239 -3.303942,2.78861 -5.385195,4.36939 -6.742491,5.12113 -7.567869,6.67569 -4.991746,9.40172 1.394295,1.47544 1.600609,1.86984 1.600609,3.05985 0,1.18501 -0.73957,2.15391 -1.867535,2.44665 -1.30426,0.33849 -2.635923,0.41996 -3.607914,0.22073 z m 3.100018,-2.22589 c 0.258737,-0.18123 0.470431,-0.4565 0.470431,-0.61171 0,-0.15522 -0.502001,-0.79275 -1.11556,-1.41675 -1.427698,-1.45199 -1.934214,-2.49876 -1.93168,-3.99204 0.0042,-2.45802 1.471191,-4.21547 7.067495,-8.46667 1.915647,-1.4552 4.042437,-3.17031 4.726187,-3.81133 l 1.2432,-1.16551 -2.01923,-1.0225 c -1.110571,-0.56237 -2.572427,-1.4403 -3.248567,-1.95094 -0.676139,-0.51064 -1.329863,-0.93097 -1.452721,-0.93408 -0.324337,-0.008 -4.573975,4.38843 -6.746033,6.97936 -2.105376,2.51139 -2.930324,3.31387 -5.224263,5.08201 -1.985188,1.53015 -2.728828,2.39143 -2.728828,3.16051 0,0.68063 0.443196,1.26641 3.704166,4.89587 1.769392,1.96933 2.582397,2.70999 3.386667,3.08529 1.266112,0.59081 3.148726,0.6728 3.868736,0.16849 z m 46.069763,-2.2227 c 2.56061,-1.6239 6.7758,-5.43528 7.71155,-6.9728 0.53622,-0.88106 0.582,-1.74565 0.11304,-2.13485 -0.63825,-0.52971 -1.86773,-0.2578 -4.2606,0.94227 -1.27194,0.6379 -2.64687,1.22253 -3.05541,1.29917 -2.25551,0.42314 -3.91386,-1.77143 -7.55291,-9.99506 -2.0659,-4.66859 -2.32875,-5.11285 -4.36754,-7.38183 l -1.42499,-1.58588 -1.93498,1.8645 c -1.06424,1.02548 -2.5303,2.32942 -3.2579,2.89765 -0.72761,0.56823 -1.32292,1.06382 -1.32292,1.1013 0,0.0375 0.69056,0.53429 1.53458,1.10401 2.36857,1.59879 2.82792,2.12851 3.98021,4.58996 1.33468,2.85103 2.14136,4.01512 5.05783,7.29876 1.29249,1.45521 3.0164,3.61823 3.83091,4.80672 0.81451,1.1885 1.69049,2.30768 1.94662,2.48709 0.74551,0.52217 1.861,0.4029 3.00251,-0.32101 z m -30.973045,-19.5698 c 0.51217,-0.64185 0.93122,-1.29608 0.93122,-1.45385 0,-0.15776 -1.01655,-0.9666 -2.259,-1.79741 -2.772445,-1.85389 -5.393725,-4.2852 -6.553522,-6.07858 l -0.871997,-1.34835 -1.454999,2.90635 -1.454999,2.90634 1.348647,1.27 c 0.741756,0.6985 2.123089,1.73559 3.069628,2.30464 1.755487,1.05539 5.066917,2.43817 5.869192,2.45084 0.29002,0.005 0.76842,-0.39877 1.37583,-1.15998 z m 8.523525,-0.88064 c 1.54538,-0.92606 2.40246,-1.56355 4.77279,-3.55 1.66545,-1.39571 4.25074,-4.15109 4.25074,-4.53039 0,-0.16162 -2.73391,-3.29826 -5.69386,-6.53262 l -1.39698,-1.52649 -0.90661,0.20622 c -3.74127,0.85098 -11.514845,0.53303 -16.549174,-0.67689 -0.493598,-0.11863 -0.766222,1.92293 -0.479954,3.59415 0.583648,3.4073 2.740758,5.95056 8.099253,9.54908 1.801145,1.20957 3.830835,2.65943 4.510415,3.2219 0.67957,0.56247 1.42912,1.02268 1.66564,1.02268 0.23653,0 1.01401,-0.34994 1.72774,-0.77764 z M 73.691216,202.06842 c 0.932769,-0.47033 1.779376,-1.01802 1.881349,-1.21708 0.101972,-0.19906 0.247061,-0.9799 0.322419,-1.73519 0.09368,-0.93891 0.29467,-1.59484 0.635451,-2.07379 1.309497,-1.84045 3.729109,-4.26368 8.345907,-8.35838 l 0.900612,-0.79876 -1.839498,-2.30572 -1.839498,-2.30572 -1.207619,1.06299 c -3.272858,2.88089 -5.918148,6.34956 -10.533834,13.81261 -0.874822,1.41449 -1.046037,2.37099 -0.594673,3.32217 0.356485,0.75124 1.242037,1.43673 1.868536,1.4464 0.200696,0.003 1.128078,-0.37919 2.060848,-0.84953 z m 34.615924,-2.62795 c 2.07541,-0.46453 2.64896,-0.7346 2.89965,-1.36536 0.12001,-0.30197 0.26653,-1.88253 0.3256,-3.51236 0.12934,-3.56869 -0.23759,-6.41798 -1.33131,-10.33779 -0.81466,-2.91971 -0.7759,-3.52638 0.22529,-3.52638 0.64863,0 0.98166,0.51702 1.60918,2.49821 l 0.48958,1.54571 2.23017,-0.14445 c 1.2266,-0.0794 2.25331,-0.16315 2.28159,-0.18602 0.17364,-0.14039 0.47775,-2.51705 0.47775,-3.73369 0,-1.67133 -0.39428,-4.63504 -0.66178,-4.97448 -0.10272,-0.13034 -1.27456,-0.28876 -2.67103,-0.36109 -1.36841,-0.0709 -3.61717,-0.32366 -4.99725,-0.56172 l -2.50922,-0.43285 -0.62248,0.52379 c -1.52625,1.28425 -3.29862,1.21228 -7.861475,-0.31925 -1.721905,-0.57795 -3.388775,-1.04857 -3.704165,-1.0458 -1.73542,0.0152 -7.232011,3.34392 -10.459303,6.33412 l -1.039743,0.96335 0.610616,0.9525 c 0.335837,0.52388 1.58183,2.16902 2.768874,3.65587 l 2.158257,2.70336 1.212263,-0.82133 c 3.177256,-2.15263 4.477796,-2.56478 4.808216,-1.52373 0.19527,0.61526 -0.22319,1.222 -1.17918,1.7097 -0.9716,0.49568 -0.91477,0.36855 -1.22608,2.7428 -0.12975,0.98954 -0.520602,3.08504 -0.868563,4.65667 -0.347963,1.57162 -0.634227,2.96917 -0.636143,3.10567 -0.0059,0.41996 2.625176,1.08722 6.558181,1.66321 2.60106,0.38093 9.016545,0.26046 11.112505,-0.20866 z m 14.90734,-18.33244 c 3.22158,-1.53405 6.74999,-4.46342 8.65048,-7.18186 1.46504,-2.09557 1.9053,-2.49608 3.85301,-3.50516 0.98954,-0.51266 2.07167,-1.18584 2.40473,-1.49594 1.63585,-1.5231 1.54893,-4.15082 -0.17465,-5.28016 -0.81677,-0.53517 -2.58512,-0.32446 -3.86108,0.46007 -0.7782,0.47848 -1.25096,1.0175 -2.02752,2.3117 -1.27994,2.1331 -1.7998,2.64817 -5.03227,4.98584 -2.22998,1.61269 -5.10472,3.22725 -7.42439,4.16981 -0.52362,0.21276 -0.54747,0.28251 -0.3906,1.14184 0.0919,0.50338 0.23586,1.94942 0.31993,3.21342 l 0.15286,2.29818 0.87274,-0.13412 c 0.48002,-0.0738 1.67556,-0.5164 2.65676,-0.98362 z m -18.82317,-9.41635 c 0.1598,-2.89313 0.59881,-3.35918 3.77175,-4.00406 2.05226,-0.41711 2.9694,-0.77093 4.20893,-1.62375 1.81181,-1.24656 2.54519,-3.59881 1.96881,-6.31482 -0.25935,-1.22213 -0.25036,-1.29253 0.25032,-1.95949 0.28564,-0.3805 0.58567,-0.80442 0.66673,-0.94205 0.0945,-0.16042 -0.31414,-0.49622 -1.13841,-0.93556 -1.81263,-0.96612 -2.27193,-1.81214 -2.53212,-4.66404 -0.11006,-1.20643 -0.30401,-2.55689 -0.43099,-3.00104 -0.22196,-0.77636 -0.25691,-0.80088 -0.90503,-0.635 -1.31684,0.33703 -2.94306,0.17549 -4.24516,-0.42169 -0.68346,-0.31347 -1.3264,-0.56993 -1.42875,-0.56993 -0.10234,0 -0.18608,0.51918 -0.18608,1.15374 0,2.64707 -1.09916,5.41833 -2.85751,7.20454 -1.34656,1.36789 -2.259445,1.82227 -3.148715,1.56723 -1.15932,-0.33248 -2.018985,-0.22622 -2.561875,0.31667 -1.53123,1.53123 -0.33031,4.99782 1.731385,4.99782 1.56635,0 2.36799,1.28305 1.25661,2.01125 -0.39023,0.25569 -0.52602,0.5788 -0.61807,1.47066 -0.13079,1.26727 -0.79463,2.9413 -1.43791,3.62604 -0.355105,0.37799 -0.397825,0.62379 -0.281045,1.61735 l 0.1377,1.17163 2.037635,0.75879 c 2.772965,1.03262 3.349965,1.1751 4.577615,1.13035 l 1.05834,-0.0386 z m -8.26146,-5.77379 c 0.27602,-0.99377 0.27982,-2.15264 0.007,-2.15264 -0.40262,0 -1.93853,-1.56304 -2.37773,-2.41973 -0.66635,-1.29975 -0.7628,-3.60101 -0.19737,-4.70934 0.51514,-1.00976 1.52734,-1.92186 2.32622,-2.09617 0.31117,-0.0679 0.6731,-0.15564 0.80429,-0.19497 0.131195,-0.0393 0.644225,0.0196 1.140065,0.13106 0.78614,0.17663 0.99373,0.14063 1.62164,-0.28123 0.819765,-0.55076 1.939015,-2.14918 2.487845,-3.55296 0.21005,-0.53727 0.42476,-1.82799 0.49251,-2.9608 0.10953,-1.83113 0.1717,-2.05988 0.70474,-2.59292 0.7547,-0.75469 1.35263,-0.74163 3.20169,0.0699 0.85781,0.3765 1.87425,0.66033 2.39281,0.66817 1.79191,0.0271 3.48934,-1.42147 3.48934,-2.97775 0,-1.01611 -0.50428,-1.51995 -1.52127,-1.51995 -1.02397,0 -2.04277,-0.41839 -3.3431,-1.37293 -1.24434,-0.91342 -2.6802,-1.57959 -3.41797,-1.58576 -0.30608,-0.003 -1.1157,0.25192 -1.79917,0.5655 -1.13328,0.51996 -1.55006,0.58211 -4.735155,0.7061 -2.824505,0.10995 -3.755655,0.22692 -4.868335,0.61156 -2.573531,0.88964 -4.759656,2.47061 -5.938623,4.2947 -0.691951,1.07058 -0.938743,1.77228 -1.379391,3.92201 -0.0574,0.28001 -0.420914,0.63887 -0.889119,0.87773 -0.483855,0.24685 -0.997274,0.76258 -1.31953,1.32549 -0.454901,0.79461 -0.527505,1.18363 -0.527505,2.82643 0,1.6205 0.0841,2.0844 0.56312,3.10624 0.309715,0.66068 0.939131,1.61318 1.398704,2.11667 1.117736,1.22454 1.31901,1.65875 1.31901,2.84551 0,0.58529 0.183735,1.38497 0.439693,1.91371 0.583745,1.20586 2.253367,2.03954 5.208403,2.60069 2.122528,0.40307 3.278988,0.82763 3.579708,1.3142 0.21445,0.34699 0.86539,-0.49918 1.13741,-1.47854 z m 43.71504,-14.64004 c 0.17292,-0.27979 -0.82063,-1.18376 -1.59948,-1.45527 -0.56978,-0.19862 -0.63138,-0.17125 -0.75901,0.3373 -0.10646,0.42414 -0.0271,0.64403 0.33978,0.94108 0.51089,0.41369 1.80242,0.52686 2.01871,0.17689 z m -4.33858,-1.07609 c 0,-0.62496 -0.0283,-0.64565 -0.68792,-0.5022 -2.13732,0.46486 -2.25541,1.09934 -0.21167,1.13731 0.86721,0.0161 0.89959,-0.007 0.89959,-0.63511 z m 6.06764,-5.2587 c 4.11309,-1.40031 8.24547,-5.17677 10.44037,-9.54114 3.7844,-7.52497 2.78135,-15.80177 -2.52119,-20.80392 -3.32008,-3.13199 -8.41141,-4.57069 -12.93593,-3.6554 -7.28474,1.47367 -12.02521,6.88006 -12.95094,14.77023 -0.85319,7.27194 2.83125,14.88589 8.84103,18.27013 3.35708,1.89045 5.67708,2.13451 9.12666,0.9601 z"
       id="path302"
       inkscape:export-filename="logo7.svg"
       inkscape:export-xdpi="96"
       inkscape:export-ydpi="96" /></g></svg>
